<svg width="1280" height="1280" viewBox="0 0 1280 1280" fill="none" xmlns="http://www.w3.org/2000/svg">
<g clip-path="url(#clip0_47_2)">
<circle cx="640" cy="640" r="640" fill="#FBE9B2"/>
<path d="M540 900L740 860V1030C740 1068.66 708.66 1100 670 1100H610C571.34 1100 540 1068.66 540 1030V900Z" fill="#60A5FA"/>
<path d="M740 1030C740 1051.16 730.607 1070.13 715.763 1082.97C721.018 1073.14 724 1061.92 724 1050V880L540 916.801V900L740 860V1030Z" fill="#64748B"/>
<path d="M504.359 254.11C501.994 213.904 533.963 180 574.239 180H705.488C745.866 180 777.871 214.068 775.352 254.366L740 820L540 860L504.359 254.11Z" fill="#60A5FA"/>
<path d="M705.729 180C746.106 180 778.111 214.067 775.593 254.366L740.24 820L725.303 822.987L759.593 274.366C762.111 234.067 730.106 200 689.729 200H558.479C540.929 200 524.958 206.438 512.716 217.029C524.47 195.07 547.627 180 574.479 180H705.729Z" fill="#64748B"/>
</g>
<defs>
<clipPath id="clip0_47_2">
<rect width="1280" height="1280" fill="white"/>
</clipPath>
</defs>
</svg>
